<svg width="20" height="26" viewBox="0 0 20 26" fill="none" xmlns="http://www.w3.org/2000/svg">
<path fill-rule="evenodd" clip-rule="evenodd" d="M14.2499 9.45835H16.5024C17.7633 9.45835 18.3866 10.9884 17.4941 11.8809L10.9916 18.3834C10.4391 18.9359 9.54659 18.9359 8.99409 18.3834L2.49159 11.8809C1.59909 10.9884 2.23659 9.45835 3.49742 9.45835H5.74992V2.37502C5.74992 1.59585 6.38742 0.958355 7.16659 0.958355H12.8333C13.6124 0.958355 14.2499 1.59585 14.2499 2.37502V9.45835ZM1.49992 25.0417C0.720752 25.0417 0.083252 24.4042 0.083252 23.625C0.083252 22.8459 0.720752 22.2084 1.49992 22.2084H18.4999C19.2791 22.2084 19.9166 22.8459 19.9166 23.625C19.9166 24.4042 19.2791 25.0417 18.4999 25.0417H1.49992Z" fill="white"/>
</svg>
