<svg width="22" height="20" viewBox="0 0 22 20" fill="none" xmlns="http://www.w3.org/2000/svg">
<path fill-rule="evenodd" clip-rule="evenodd" d="M2.48933 10.0019C2.48933 4.53106 7.00683 0.100222 12.521 0.251889C17.6018 0.392722 21.8485 4.63939 21.9893 9.72022C22.141 15.2344 17.7102 19.7519 12.2393 19.7519C9.97517 19.7519 7.906 18.9827 6.25933 17.6827C5.75016 17.2927 5.71767 16.5236 6.17267 16.0686C6.56267 15.6786 7.16933 15.6461 7.60266 15.9819C8.881 16.9894 10.4952 17.5852 12.2393 17.5852C16.4643 17.5852 19.8768 14.1294 19.8227 9.89356C19.7685 5.86356 16.3777 2.47272 12.3477 2.41856C8.101 2.36439 4.656 5.77689 4.656 10.0019H6.59517C7.08266 10.0019 7.321 10.5869 6.98517 10.9227L3.96266 13.9561C3.746 14.1727 3.41017 14.1727 3.1935 13.9561L0.170998 10.9227C-0.175668 10.5869 0.0626649 10.0019 0.550165 10.0019H2.48933ZM11.156 6.48106C11.156 6.03689 11.5243 5.66856 11.9685 5.66856C12.4127 5.66856 12.781 6.03689 12.781 6.47022V10.1536L15.901 12.0061C16.2802 12.2336 16.4102 12.7319 16.1827 13.1219C15.9552 13.5011 15.4568 13.6311 15.0668 13.4036L11.6868 11.3994C11.3618 11.2044 11.156 10.8469 11.156 10.4677V6.48106Z" fill="white"/>
</svg>
